<?xml version="1.0" encoding="utf-8"?>
<!-- Generator: Adobe Illustrator 25.0.1, SVG Export Plug-In . SVG Version: 6.00 Build 0)  -->
<svg version="1.1" id="Layer_1" xmlns="http://www.w3.org/2000/svg" xmlns:xlink="http://www.w3.org/1999/xlink" x="0px" y="0px"
	 viewBox="0 0 500 500" style="enable-background:new 0 0 500 500;" xml:space="preserve">
<style type="text/css">
	.st0{clip-path:url(#SVGID_2_);}
	.st1{fill-rule:evenodd;clip-rule:evenodd;fill:#9993BD;}
</style>
<g>
	<defs>
		<rect id="SVGID_1_" x="-259.57" y="123.14" width="1000" height="400"/>
	</defs>
	<clipPath id="SVGID_2_">
		<use xlink:href="#SVGID_1_"  style="overflow:visible;"/>
	</clipPath>
	<g class="st0">
		<polygon class="st1" points="355.75,265.77 361.7,272.4 363.83,272.4 368.04,267.9 363.7,270.52 		"/>
		<polygon class="st1" points="309.71,269.52 312.58,272.83 313.91,272.83 319.11,268.19 312.24,271.56 		"/>
		<polygon class="st1" points="346.51,256.62 351.57,259.26 353.79,253.41 350.15,258.01 		"/>
		<polygon class="st1" points="363.83,272.4 367.87,272.4 367.87,271.27 363.04,271.83 		"/>
		<polygon class="st1" points="308.15,291.29 302.2,297.91 300.07,297.91 295.86,293.41 300.5,295.85 		"/>
		<polygon class="st1" points="300.07,297.91 296.03,297.91 296.03,296.79 300.86,297.35 		"/>
		<polygon class="st1" points="350.85,258.88 351.66,260.18 352.66,259.53 351.33,258.88 		"/>
		<polygon class="st1" points="291.76,272.64 286.11,275.58 283.64,269.06 287.7,274.19 		"/>
		<polygon class="st1" points="286.92,275.16 286.01,276.61 284.9,275.88 286.39,275.16 		"/>
		<polygon class="st1" points="312.7,272.4 313.52,273.58 314.41,273.58 313.91,272.83 		"/>
		<polygon class="st1" points="324.87,266.66 333.7,265.57 332.08,266.66 327.66,270.81 326.76,267.48 324.33,267.48 		"/>
	</g>
</g>
</svg>
