<?xml version="1.0" encoding="utf-8"?>
<!-- Generator: Adobe Illustrator 25.0.1, SVG Export Plug-In . SVG Version: 6.00 Build 0)  -->
<svg version="1.1" id="Layer_1" xmlns="http://www.w3.org/2000/svg" xmlns:xlink="http://www.w3.org/1999/xlink" x="0px" y="0px"
	 viewBox="0 0 500 500" style="enable-background:new 0 0 500 500;" xml:space="preserve">
<style type="text/css">
	.st0{clip-path:url(#SVGID_2_);}
	.st1{fill-rule:evenodd;clip-rule:evenodd;fill:#4F5784;}
	.st2{fill-rule:evenodd;clip-rule:evenodd;fill:#8E81C5;}
</style>
<g>
	<defs>
		<rect id="SVGID_1_" x="-259.57" y="123.14" width="1000" height="400"/>
	</defs>
	<clipPath id="SVGID_2_">
		<use xlink:href="#SVGID_1_"  style="overflow:visible;"/>
	</clipPath>
	<g class="st0">
		<polygon class="st1" points="-44.23,233.58 -29.43,218.54 -10.4,218.54 -28.64,221.04 -37.93,233.35 -38.94,239.14 -44.25,238.13 
			-66.99,241.41 -78.07,249.24 -66.48,238.63 		"/>
		<polygon class="st2" points="-10.4,247.73 -7.11,243.68 3.25,245.71 11.87,242.45 16.13,245.09 11.96,243.97 4.76,246.81 
			3.81,248.33 2.25,246.71 -6.32,245.39 		"/>
		<polygon class="st1" points="24.57,210.34 36.51,221.04 38.76,229.85 36.51,221.04 46.07,208.06 42.18,221.04 41,228.95 
			39.3,233.59 37.06,229.14 34.7,221.8 		"/>
	</g>
</g>
</svg>
